<svg xmlns="http://www.w3.org/2000/svg" width="90" height="120" fill="none" viewBox="0 0 64 72">
<style>
    :root {
      --fillColor: rgba(0,0,0,1);
      --fillBg: rgba(255,255,255,0.8);
    }
  </style>
  <defs>
    <linearGradient id="c" x1="30.501" x2="30.501" y1="15.999" y2="54.999" class="c" gradientUnits="userSpaceOnUse">
      <stop stop-color="#fff" stop-opacity="0"/>
      <stop offset="0" stop-color="#5FA6D7"/>
      <stop offset="1" stop-color="#1B76C8"/>
    </linearGradient>
    <linearGradient id="d" x1="30.501" x2="30.501" y1="15.999" y2="54.999" class="d" gradientUnits="userSpaceOnUse">
      <stop stop-color="#fff"/>
      <stop offset="1" stop-color="#fff" stop-opacity="0"/>
    </linearGradient>
    <clipPath id="e" class="e">
      <path fill="#fff" d="M0 0h25v23H0z" transform="translate(18 12)"/>
    </clipPath>
    <filter id="a" width="43.622" height="51.655" x="20.107" y="19.766" class="a" color-interpolation-filters="sRGB" filterUnits="userSpaceOnUse">
      <feFlood flood-opacity="0" result="BackgroundImageFix"/>
      <feBlend in="SourceGraphic" in2="BackgroundImageFix" result="shape"/>
      <feGaussianBlur result="effect1_foregroundBlur_31_90" stdDeviation="5"/>
    </filter>
  </defs>
  <g class="Group 43">
    <path fill="#A49595" fill-opacity=".1" stroke="#5B5959" d="M40.5 58.5c0 1.558-1.022 3.046-2.839 4.171-1.809 1.12-4.34 1.829-7.161 1.829-2.822 0-5.352-.709-7.161-1.829-1.817-1.125-2.839-2.613-2.839-4.171 0-1.558 1.022-3.046 2.839-4.171 1.809-1.12 4.34-1.829 7.161-1.829 2.822 0 5.352.709 7.161 1.829 1.817 1.125 2.839 2.613 2.839 4.171Z" class="Ellipse 17"/>
    <g class="Vector" filter="url(#a)">
      <path fill="#000" fill-opacity=".5" d="M30.741 58.596c2.293-11.738 2.769-20.332 5.027-23.856 3.093-4.827 9.23-6.414 13.707-3.545 4.477 2.869 5.6 9.107 2.506 13.934-2.258 3.524-8.843 6.663-19.573 14.534l-2.302 1.758.635-2.825Z"/>
    </g>
    <g class="Group 48">
      <mask id="b" width="57" height="63" x="0" y="0" class="b" maskUnits="userSpaceOnUse" style="mask-type:alpha">
        <path fill="#FF0101" fill-rule="evenodd" d="M57 0H0v63h57V0ZM38.053 11.446c-7.446-4.112-16.969-1.672-21.268 5.452-4.3 7.123-1.748 16.23 5.699 20.344 7.447 4.112 16.969 1.671 21.268-5.452 4.3-7.123 1.748-16.231-5.699-20.344Z" class="Exclude" clip-rule="evenodd"/>
      </mask>
      <g class="Vector" mask="url(#b)">
        <path fill="url(#c)" d="M29.217 54.353C23.5 41.5 18 32.837 18 28c0-6.627 5.597-12 12.5-12C37.404 16 43 21.373 43 28c0 4.838-5 12-11.215 26.354L30.5 57.5l-1.284-3.146Z"/>
        <path stroke="url(#d)" stroke-opacity=".5" d="m29.68 54.164-.003-.007-.003-.007c-1.942-4.367-3.865-8.262-5.55-11.676a394.09 394.09 0 0 1-2.207-4.52c-1.043-2.184-1.9-4.103-2.496-5.772-.598-1.674-.92-3.059-.92-4.183 0-6.332 5.353-11.5 12-11.5s12 5.168 12 11.5c0 1.128-.292 2.42-.849 3.972-.556 1.55-1.365 3.326-2.378 5.419-.49 1.014-1.028 2.1-1.605 3.267-1.8 3.637-3.985 8.054-6.342 13.498l-.004.01-.822 2.011-.822-2.012Z"/>
      </g>
    </g>
    <g class="Group 32">
      <g class="Mask group">
        <g class="cow-svgrepo-com 1" clip-path="url(#e)">
          <g class="Group">
          <g class="Group">
            <g class="Group">
              <g class="Group 49">
                <path fill="var(--fillBg)" d="M42.207 18.398c0-.422-.323-.765-.723-.765h-4.642a7.612 7.612 0 0 0-1.207-1.691l-.052-.054v-2.763c0-.423-.324-.765-.723-.765-.4 0-.723.342-.723.765v1.597a6.881 6.881 0 0 0-7.155-.005v-1.592c0-.423-.323-.765-.723-.765-.399 0-.722.342-.722.765v2.748a7.61 7.61 0 0 0-1.258 1.76h-4.644c-.4 0-.723.343-.723.765 0 2.43 2.312 4.125 4.47 3.241v3.8c-1.102.762-1.77 2.052-1.77 3.47v1.236c0 2.287 1.758 4.149 3.919 4.149h10.058c2.16 0 3.919-1.861 3.919-4.15V28.91c0-1.42-.669-2.71-1.77-3.47v-3.8c2.16.884 4.47-.815 4.47-3.242Z" class="VectorBG"/>
                <path fill="var(--fillColor)" d="M42.207 18.398c0-.422-.323-.765-.723-.765h-4.642a7.612 7.612 0 0 0-1.207-1.691l-.052-.054v-2.763c0-.423-.324-.765-.723-.765-.4 0-.723.342-.723.765v1.597a6.881 6.881 0 0 0-7.155-.005v-1.592c0-.423-.323-.765-.723-.765-.399 0-.722.342-.722.765v2.748a7.61 7.61 0 0 0-1.258 1.76h-4.644c-.4 0-.723.343-.723.765 0 2.43 2.312 4.125 4.47 3.241v3.8c-1.102.762-1.77 2.052-1.77 3.47v1.236c0 2.287 1.758 4.149 3.919 4.149h10.058c2.16 0 3.919-1.861 3.919-4.15V28.91c0-1.42-.669-2.71-1.77-3.47v-3.8c2.16.884 4.47-.815 4.47-3.242ZM30.57 15.246c-.472 2.763-2.869 4.73-5.544 4.483.674-2.647 2.95-4.486 5.544-4.483Zm-5.742 6.068v-.068c3.477.361 6.604-2.203 7.177-5.81 2.418.66 4.286 3.017 4.286 5.878v3.513c-.829-.159-11.112-.067-11.463 0v-3.513Zm-4.322-2.15h3.168c-.05.18-.097.374-.134.56-.902 1.027-2.51.733-3.034-.56Zm17.556 9.746v1.235c0 1.444-1.11 2.618-2.473 2.618H25.53c-1.364 0-2.474-1.174-2.474-2.618V28.91c0-1.471 1.125-2.619 2.474-2.619h10.058c1.346 0 2.473 1.145 2.473 2.619Zm-.482-9.186a7.828 7.828 0 0 0-.134-.56h3.168c-.525 1.294-2.133 1.586-3.034.56Z" class="Vector"/>
              </g>
            </g>
          </g>
            <g class="Group">
              <path fill="var(--fillColor)" d="M28.1 28.074c-.4 0-.723.343-.723.765v1.831c0 .423.324.765.723.765.4 0 .724-.342.724-.765v-1.83c0-.423-.324-.766-.724-.766Z" class="Vector"/>
            </g>
          </g>
          <g class="Group">
            <g class="Group">
              <path fill="var(--fillColor)" d="M32.194 28.074c-.4 0-.723.343-.723.765v1.831c0 .423.323.765.723.765.4 0 .723-.342.723-.765v-1.83c0-.423-.323-.766-.723-.766Z" class="Vector"/>
            </g>
          </g>
          
          <g class="Group">
            <g class="Group">
              <path fill="var(--fillColor)" d="M26.682 23.823c.529 0 .957-.453.957-1.012 0-.56-.428-1.012-.957-1.012-.528 0-.957.453-.957 1.012 0 .559.429 1.012.957 1.012Z" class="Vector"/>
            </g>
          </g>
          <g class="Group">
            <g class="Group">
              <path fill="var(--fillColor)" d="M33.642 23.823c.528 0 .956-.453.956-1.012 0-.56-.428-1.012-.956-1.012-.53 0-.958.453-.958 1.012 0 .559.429 1.012.958 1.012Z" class="Vector"/>
            </g>
          </g>
        </g>
      </g>
      <path stroke="#64A4D9" stroke-linecap="round" d="M22 37.479C28.46 40.16 32 41 39.5 37" class="Vector 4"/>
    </g>
  </g>
</svg>

