<svg xmlns="http://www.w3.org/2000/svg" xmlns:xlink="http://www.w3.org/1999/xlink" width="500" zoomAndPan="magnify" viewBox="0 0 375 374.999991" height="500" preserveAspectRatio="xMidYMid meet" version="1.0"><defs><clipPath id="85f0de3a0a"><path d="M 78 143 L 375 143 L 375 279.214844 L 78 279.214844 Z M 78 143 " clip-rule="nonzero"/></clipPath><clipPath id="9a911b51b4"><path d="M 0 93.964844 L 316 93.964844 L 316 251 L 0 251 Z M 0 93.964844 " clip-rule="nonzero"/></clipPath></defs><g clip-path="url(#85f0de3a0a)"><path fill="#ff6100" d="M 239.488281 211.4375 C 239.488281 248.804688 269.773438 279.214844 307 279.214844 C 344.226562 279.214844 374.507812 248.804688 374.507812 211.4375 C 374.507812 174.066406 344.226562 143.660156 307 143.660156 C 301.128906 143.660156 295.433594 144.421875 290 145.835938 L 295.957031 161.035156 C 299.523438 160.25 303.210938 159.820312 307.007812 159.820312 C 335.308594 159.820312 358.328125 182.972656 358.328125 211.429688 C 358.328125 239.882812 335.308594 263.039062 307.007812 263.039062 C 278.707031 263.039062 255.683594 239.882812 255.683594 211.429688 C 255.683594 192.542969 265.828125 176.007812 280.925781 167.011719 L 274.964844 151.796875 C 253.855469 163.277344 239.488281 185.699219 239.488281 211.4375 Z M 171.28125 166.542969 L 176.953125 151.230469 C 196.378906 161.339844 210.320312 180.628906 213.019531 203.355469 L 196.695312 203.355469 C 194.230469 187.574219 184.605469 174.15625 171.28125 166.542969 Z M 146.019531 143.667969 C 151.457031 143.667969 156.742188 144.332031 161.808594 145.558594 L 156.144531 160.84375 C 152.867188 160.1875 149.484375 159.835938 146.019531 159.835938 C 117.714844 159.835938 94.695312 182.992188 94.695312 211.445312 C 94.695312 239.898438 117.714844 263.054688 146.019531 263.054688 C 171.582031 263.054688 192.835938 244.15625 196.710938 219.527344 L 213.035156 219.527344 C 209.039062 253.097656 180.523438 279.214844 146.027344 279.214844 C 108.800781 279.214844 78.515625 248.8125 78.515625 211.4375 C 78.515625 174.058594 108.792969 143.667969 146.019531 143.667969 Z M 146.019531 143.667969 " fill-opacity="1" fill-rule="nonzero"/></g><path fill="#004aad" d="M 161.734375 211.4375 C 161.734375 215.902344 165.355469 219.519531 169.824219 219.519531 L 229.300781 219.519531 C 233.769531 219.519531 237.390625 215.902344 237.390625 211.4375 C 237.390625 206.972656 233.769531 203.355469 229.300781 203.355469 L 169.824219 203.355469 C 165.363281 203.355469 161.734375 206.972656 161.734375 211.4375 Z M 161.734375 211.4375 " fill-opacity="1" fill-rule="nonzero"/><path fill="#004aad" d="M 143.210938 219.015625 C 144.140625 219.359375 145.085938 219.527344 146.019531 219.527344 C 149.304688 219.527344 152.398438 217.507812 153.605469 214.25 L 171.28125 166.550781 L 176.953125 151.238281 L 182.027344 137.546875 C 183.578125 133.359375 181.4375 128.710938 177.246094 127.164062 C 173.054688 125.613281 168.402344 127.75 166.851562 131.9375 L 161.800781 145.566406 L 156.136719 160.851562 L 138.421875 208.640625 C 136.878906 212.820312 139.019531 217.46875 143.210938 219.015625 Z M 143.210938 219.015625 " fill-opacity="1" fill-rule="nonzero"/><path fill="#004aad" d="M 135.773438 111.707031 C 135.773438 116.171875 139.390625 119.789062 143.863281 119.789062 L 183.332031 119.789062 C 187.800781 119.789062 191.421875 116.171875 191.421875 111.707031 C 191.421875 107.242188 187.800781 103.628906 183.332031 103.628906 L 143.863281 103.628906 C 139.390625 103.621094 135.773438 107.242188 135.773438 111.707031 Z M 135.773438 111.707031 " fill-opacity="1" fill-rule="nonzero"/><g clip-path="url(#9a911b51b4)"><path fill="#004aad" d="M 198.046875 134.734375 C 198.046875 139.199219 201.667969 142.816406 206.136719 142.816406 L 271.433594 142.816406 L 274.949219 151.796875 L 280.910156 167.011719 L 299.457031 214.375 C 300.707031 217.5625 303.761719 219.519531 307 219.519531 C 307.976562 219.519531 308.980469 219.335938 309.941406 218.960938 C 314.101562 217.332031 316.15625 212.644531 314.53125 208.488281 L 295.949219 161.042969 L 289.992188 145.84375 L 269.675781 93.964844 L 235.773438 93.964844 C 231.304688 93.964844 227.6875 97.582031 227.6875 102.046875 C 227.6875 106.511719 231.304688 110.125 235.773438 110.125 L 258.628906 110.125 L 265.101562 126.644531 L 206.136719 126.644531 C 201.667969 126.652344 198.046875 130.269531 198.046875 134.734375 Z M 23.71875 154.980469 C 23.71875 150.515625 27.335938 146.898438 31.808594 146.898438 L 79.894531 146.898438 C 84.363281 146.898438 87.980469 150.515625 87.980469 154.980469 C 87.980469 159.445312 84.363281 163.0625 79.894531 163.0625 L 31.808594 163.0625 C 27.347656 163.0625 23.71875 159.445312 23.71875 154.980469 Z M 8.589844 174.664062 L 63.148438 174.664062 C 67.617188 174.664062 71.238281 178.277344 71.238281 182.746094 C 71.238281 187.210938 67.617188 190.824219 63.148438 190.824219 L 8.589844 190.824219 C 4.117188 190.824219 0.5 187.210938 0.5 182.746094 C 0.5 178.277344 4.117188 174.664062 8.589844 174.664062 Z M 25.339844 205.351562 L 59.910156 205.351562 C 64.382812 205.351562 68 208.964844 68 213.429688 C 68 217.898438 64.382812 221.511719 59.910156 221.511719 L 25.339844 221.511719 C 20.871094 221.511719 17.25 217.898438 17.25 213.429688 C 17.25 208.964844 20.871094 205.351562 25.339844 205.351562 Z M 49.90625 233.996094 L 68.289062 233.996094 C 72.757812 233.996094 76.375 237.609375 76.375 242.074219 C 76.375 246.542969 72.757812 250.15625 68.289062 250.15625 L 49.90625 250.15625 C 45.433594 250.15625 41.816406 246.542969 41.816406 242.074219 C 41.816406 237.609375 45.433594 233.996094 49.90625 233.996094 Z M 49.90625 233.996094 " fill-opacity="1" fill-rule="nonzero"/></g></svg>