<svg xmlns="http://www.w3.org/2000/svg" xmlns:xlink="http://www.w3.org/1999/xlink" width="500" zoomAndPan="magnify" viewBox="0 0 375 112.499997" height="150" preserveAspectRatio="xMidYMid meet" version="1.0"><defs><g/><clipPath id="1734e10513"><path d="M 29 39 L 137.449219 39 L 137.449219 88.796875 L 29 88.796875 Z M 29 39 " clip-rule="nonzero"/></clipPath><clipPath id="c8816dae77"><path d="M 0.828125 21.597656 L 116 21.597656 L 116 79 L 0.828125 79 Z M 0.828125 21.597656 " clip-rule="nonzero"/></clipPath></defs><g clip-path="url(#1734e10513)"><path fill="#ff6100" d="M 88.070312 64.210938 C 88.070312 77.769531 99.105469 88.796875 112.671875 88.796875 C 126.234375 88.796875 137.269531 77.769531 137.269531 64.210938 C 137.269531 50.65625 126.234375 39.625 112.671875 39.625 C 110.53125 39.625 108.457031 39.902344 106.476562 40.414062 L 108.648438 45.929688 C 109.945312 45.644531 111.292969 45.488281 112.675781 45.488281 C 122.988281 45.488281 131.375 53.886719 131.375 64.207031 C 131.375 74.53125 122.988281 82.929688 112.675781 82.929688 C 102.359375 82.929688 93.972656 74.53125 93.972656 64.207031 C 93.972656 57.355469 97.667969 51.359375 103.171875 48.097656 L 101 42.574219 C 93.304688 46.742188 88.070312 54.875 88.070312 64.210938 Z M 63.21875 47.925781 L 65.285156 42.371094 C 72.363281 46.039062 77.441406 53.035156 78.425781 61.28125 L 72.476562 61.28125 C 71.578125 55.554688 68.074219 50.6875 63.21875 47.925781 Z M 54.011719 39.628906 C 55.996094 39.628906 57.917969 39.871094 59.765625 40.3125 L 57.703125 45.859375 C 56.507812 45.621094 55.277344 45.492188 54.011719 45.492188 C 43.699219 45.492188 35.3125 53.890625 35.3125 64.214844 C 35.3125 74.535156 43.699219 82.9375 54.011719 82.9375 C 63.328125 82.9375 71.074219 76.082031 72.484375 67.144531 L 78.433594 67.144531 C 76.976562 79.324219 66.585938 88.796875 54.015625 88.796875 C 40.449219 88.796875 29.414062 77.769531 29.414062 64.210938 C 29.414062 50.652344 40.449219 39.628906 54.011719 39.628906 Z M 54.011719 39.628906 " fill-opacity="1" fill-rule="nonzero"/></g><path fill="#004aad" d="M 59.738281 64.210938 C 59.738281 65.832031 61.058594 67.144531 62.6875 67.144531 L 84.359375 67.144531 C 85.988281 67.144531 87.308594 65.832031 87.308594 64.210938 C 87.308594 62.589844 85.988281 61.28125 84.359375 61.28125 L 62.6875 61.28125 C 61.0625 61.28125 59.738281 62.589844 59.738281 64.210938 Z M 59.738281 64.210938 " fill-opacity="1" fill-rule="nonzero"/><path fill="#004aad" d="M 52.988281 66.960938 C 53.328125 67.085938 53.671875 67.144531 54.011719 67.144531 C 55.210938 67.144531 56.335938 66.414062 56.777344 65.230469 L 63.21875 47.929688 L 65.285156 42.375 L 67.132812 37.40625 C 67.699219 35.886719 66.917969 34.203125 65.390625 33.640625 C 63.863281 33.078125 62.167969 33.855469 61.601562 35.371094 L 59.761719 40.316406 L 57.699219 45.863281 L 51.246094 63.195312 C 50.683594 64.714844 51.460938 66.398438 52.988281 66.960938 Z M 52.988281 66.960938 " fill-opacity="1" fill-rule="nonzero"/><path fill="#004aad" d="M 50.277344 28.035156 C 50.277344 29.652344 51.597656 30.964844 53.226562 30.964844 L 67.609375 30.964844 C 69.238281 30.964844 70.554688 29.652344 70.554688 28.035156 C 70.554688 26.414062 69.238281 25.101562 67.609375 25.101562 L 53.226562 25.101562 C 51.597656 25.101562 50.277344 26.414062 50.277344 28.035156 Z M 50.277344 28.035156 " fill-opacity="1" fill-rule="nonzero"/><g clip-path="url(#c8816dae77)"><path fill="#004aad" d="M 72.972656 36.386719 C 72.972656 38.007812 74.289062 39.320312 75.917969 39.320312 L 99.710938 39.320312 L 100.992188 42.574219 L 103.164062 48.097656 L 109.921875 65.277344 C 110.378906 66.433594 111.492188 67.144531 112.671875 67.144531 C 113.027344 67.144531 113.394531 67.078125 113.742188 66.941406 C 115.257812 66.351562 116.007812 64.648438 115.414062 63.140625 L 108.644531 45.929688 L 106.472656 40.417969 L 99.070312 21.597656 L 86.71875 21.597656 C 85.089844 21.597656 83.769531 22.910156 83.769531 24.527344 C 83.769531 26.148438 85.089844 27.460938 86.71875 27.460938 L 95.046875 27.460938 L 97.40625 33.453125 L 75.917969 33.453125 C 74.289062 33.457031 72.972656 34.765625 72.972656 36.386719 Z M 9.449219 43.730469 C 9.449219 42.113281 10.765625 40.800781 12.394531 40.800781 L 29.917969 40.800781 C 31.546875 40.800781 32.863281 42.113281 32.863281 43.730469 C 32.863281 45.351562 31.546875 46.664062 29.917969 46.664062 L 12.394531 46.664062 C 10.769531 46.664062 9.449219 45.351562 9.449219 43.730469 Z M 3.9375 50.871094 L 23.816406 50.871094 C 25.445312 50.871094 26.765625 52.183594 26.765625 53.804688 C 26.765625 55.421875 25.445312 56.734375 23.816406 56.734375 L 3.9375 56.734375 C 2.308594 56.734375 0.988281 55.421875 0.988281 53.804688 C 0.988281 52.183594 2.308594 50.871094 3.9375 50.871094 Z M 10.039062 62.003906 L 22.636719 62.003906 C 24.265625 62.003906 25.585938 63.316406 25.585938 64.933594 C 25.585938 66.554688 24.265625 67.867188 22.636719 67.867188 L 10.039062 67.867188 C 8.410156 67.867188 7.09375 66.554688 7.09375 64.933594 C 7.09375 63.316406 8.410156 62.003906 10.039062 62.003906 Z M 18.988281 72.394531 L 25.6875 72.394531 C 27.316406 72.394531 28.636719 73.707031 28.636719 75.328125 C 28.636719 76.945312 27.316406 78.257812 25.6875 78.257812 L 18.988281 78.257812 C 17.359375 78.257812 16.042969 76.945312 16.042969 75.328125 C 16.042969 73.707031 17.359375 72.394531 18.988281 72.394531 Z M 18.988281 72.394531 " fill-opacity="1" fill-rule="nonzero"/></g><g fill="#ff6100" fill-opacity="1"><g transform="translate(229.442583, 88.0518)"><g><path d="M 40.03125 -67.640625 C 40.664062 -67.640625 40.984375 -67.363281 40.984375 -66.8125 L 41.5 -16.625 L 52.265625 -66.28125 C 52.472656 -66.925781 52.820312 -67.273438 53.3125 -67.328125 L 61.515625 -67.640625 C 62.085938 -67.578125 62.375 -67.300781 62.375 -66.8125 L 44.9375 -1.265625 C 44.726562 -0.617188 44.40625 -0.269531 43.96875 -0.21875 L 33.953125 0.171875 C 33.316406 0.140625 33 -0.21875 33 -0.90625 L 32.609375 -41.59375 L 24.21875 -1.21875 C 24.050781 -0.519531 23.707031 -0.171875 23.1875 -0.171875 L 12.765625 0.171875 C 12.148438 0.140625 11.816406 -0.21875 11.765625 -0.90625 L 8.125 -66.28125 C 8.125 -66.945312 8.515625 -67.296875 9.296875 -67.328125 L 18.3125 -67.640625 C 18.957031 -67.640625 19.28125 -67.363281 19.28125 -66.8125 L 19.875 -15.796875 L 30.90625 -66.28125 C 31.019531 -66.894531 31.46875 -67.242188 32.25 -67.328125 Z M 40.03125 -67.640625 "/></g></g></g><g fill="#ff6100" fill-opacity="1"><g transform="translate(289.171261, 88.0518)"><g><path d="M 32.03125 -66.640625 L 37.109375 -1.265625 C 37.109375 -0.597656 36.734375 -0.234375 35.984375 -0.171875 L 26.921875 0.171875 C 26.304688 0.171875 26 -0.101562 26 -0.65625 L 25.359375 -14.984375 L 15.5 -14.59375 L 12.234375 -1.21875 C 12.148438 -0.8125 12.035156 -0.535156 11.890625 -0.390625 C 11.742188 -0.242188 11.484375 -0.15625 11.109375 -0.125 L 2.125 0.171875 C 1.550781 0.171875 1.265625 -0.101562 1.265625 -0.65625 L 20.3125 -66.328125 C 20.519531 -66.960938 20.910156 -67.296875 21.484375 -67.328125 L 31.03125 -67.671875 C 31.644531 -67.648438 31.976562 -67.304688 32.03125 -66.640625 Z M 23.828125 -48.75 L 17.75 -23.828125 L 24.96875 -24.09375 Z M 23.828125 -48.75 "/></g></g></g><g fill="#ff6100" fill-opacity="1"><g transform="translate(331.016062, 88.0518)"><g><path d="M 17.71875 -66.8125 L 22.65625 -42.015625 L 31.5625 -66.328125 C 31.789062 -66.960938 32.148438 -67.296875 32.640625 -67.328125 L 41.59375 -67.640625 C 41.9375 -67.609375 42.21875 -67.488281 42.4375 -67.28125 C 42.65625 -67.082031 42.765625 -66.867188 42.765625 -66.640625 L 26.5625 -30.4375 L 23.21875 -1.21875 C 23.132812 -0.519531 22.757812 -0.15625 22.09375 -0.125 L 13.15625 0.171875 C 12.519531 0.171875 12.203125 -0.101562 12.203125 -0.65625 L 15.453125 -29.46875 L 6.59375 -66.640625 C 6.59375 -67.046875 6.984375 -67.273438 7.765625 -67.328125 L 16.578125 -67.671875 C 17.210938 -67.648438 17.59375 -67.363281 17.71875 -66.8125 Z M 17.71875 -66.8125 "/></g></g></g><g fill="#004aad" fill-opacity="1"><g transform="translate(143.447099, 88.051876)"><g><path d="M 12.28125 -66.328125 C 12.34375 -66.679688 12.445312 -66.925781 12.59375 -67.0625 C 12.738281 -67.207031 14.195312 -67.410156 16.96875 -67.671875 C 19.75 -67.929688 23.5625 -68.0625 28.40625 -68.0625 C 33.257812 -68.0625 36.988281 -66.664062 39.59375 -63.875 C 42.195312 -61.082031 43.5 -57.253906 43.5 -52.390625 C 43.5 -43.222656 42.472656 -32.660156 40.421875 -20.703125 C 39.316406 -14.367188 37.535156 -9.65625 35.078125 -6.5625 C 32.816406 -3.71875 29.285156 -1.847656 24.484375 -0.953125 C 22.316406 -0.578125 19.671875 -0.332031 16.546875 -0.21875 L 5.734375 0.171875 C 5.097656 0.140625 4.78125 -0.132812 4.78125 -0.65625 Z M 22.234375 -57.953125 L 16.9375 -10.671875 C 21.25 -11.054688 24.234375 -11.898438 25.890625 -13.203125 C 27.554688 -14.503906 28.722656 -16.976562 29.390625 -20.625 C 30.054688 -24.269531 30.710938 -29.242188 31.359375 -35.546875 C 32.015625 -41.859375 32.34375 -47.023438 32.34375 -51.046875 C 32.34375 -53.421875 31.765625 -55.1875 30.609375 -56.34375 C 29.453125 -57.5 27.878906 -58.078125 25.890625 -58.078125 C 23.910156 -58.078125 22.691406 -58.035156 22.234375 -57.953125 Z M 22.234375 -57.953125 "/></g></g></g><g fill="#004aad" fill-opacity="1"><g transform="translate(189.372202, 88.051876)"><g><path d="M 32.46875 -29.6875 L 18.96875 -29.171875 L 16.9375 -11.375 L 33.5625 -11.9375 C 34.3125 -11.90625 34.6875 -11.53125 34.6875 -10.8125 L 33.5625 -1.828125 C 33.5 -1.210938 33.117188 -0.832031 32.421875 -0.6875 L 5.734375 0.171875 C 5.097656 0.171875 4.78125 -0.101562 4.78125 -0.65625 L 12.28125 -66.328125 C 12.394531 -66.941406 12.773438 -67.273438 13.421875 -67.328125 L 37.203125 -68.15625 C 37.921875 -68.070312 38.28125 -67.679688 38.28125 -66.984375 L 37.203125 -58 C 37.117188 -57.269531 36.742188 -56.878906 36.078125 -56.828125 L 22.09375 -56.4375 L 20.234375 -40.28125 L 33.59375 -40.765625 C 34.351562 -40.734375 34.734375 -40.359375 34.734375 -39.640625 L 33.59375 -30.78125 C 33.476562 -30.113281 33.101562 -29.75 32.46875 -29.6875 Z M 32.46875 -29.6875 "/></g></g></g></svg>