<svg xmlns="http://www.w3.org/2000/svg" width="93" height="66" fill="none" viewBox="0 0 93 66">
  <path fill="#004AAD" d="M0 33a6 6 0 0 1 6-6h81a6 6 0 0 1 0 12H6a6 6 0 0 1-6-6Zm0 23a6 6 0 0 1 6-6h81a6 6 0 0 1 0 12H6a6 6 0 0 1-6-6Zm0-46a6 6 0 0 1 6-6h81a6 6 0 0 1 0 12H6a6 6 0 0 1-6-6Z"/>
  <path fill="#FF6100" d="M76 10c0 5.523-4.477 10-10 10s-10-4.477-10-10S60.477 0 66 0s10 4.477 10 10ZM39 33c0 5.523-4.477 10-10 10s-10-4.477-10-10 4.477-10 10-10 10 4.477 10 10Zm27 23c0 5.523-4.477 10-10 10s-10-4.477-10-10 4.477-10 10-10 10 4.477 10 10Z"/>
</svg>
