<svg xmlns="http://www.w3.org/2000/svg" xmlns:xlink="http://www.w3.org/1999/xlink" width="500" zoomAndPan="magnify" viewBox="0 0 375 374.999991" height="500" preserveAspectRatio="xMidYMid meet" version="1.0"><defs><clipPath id="1d7e9f66d2"><path d="M 6.140625 6.140625 L 369.140625 6.140625 L 369.140625 369.140625 L 6.140625 369.140625 Z M 6.140625 6.140625 " clip-rule="nonzero"/></clipPath><clipPath id="7245966720"><path d="M 89 148 L 355.824219 148 L 355.824219 270.707031 L 89 270.707031 Z M 89 148 " clip-rule="nonzero"/></clipPath><clipPath id="36b4aba56c"><path d="M 19.167969 104.207031 L 303 104.207031 L 303 245 L 19.167969 245 Z M 19.167969 104.207031 " clip-rule="nonzero"/></clipPath></defs><path fill="#545454" d="M 187.5 0 C 83.945312 0 0 83.945312 0 187.5 C 0 291.054688 83.945312 375 187.5 375 C 291.054688 375 375 291.054688 375 187.5 C 375 83.945312 291.054688 0 187.5 0 " fill-opacity="1" fill-rule="nonzero"/><g clip-path="url(#1d7e9f66d2)"><path fill="#f5f5f5" d="M 187.640625 6.140625 C 87.398438 6.140625 6.140625 87.398438 6.140625 187.640625 C 6.140625 287.878906 87.398438 369.140625 187.640625 369.140625 C 287.878906 369.140625 369.140625 287.878906 369.140625 187.640625 C 369.140625 87.398438 287.878906 6.140625 187.640625 6.140625 " fill-opacity="1" fill-rule="nonzero"/></g><g clip-path="url(#7245966720)"><path fill="#ff6100" d="M 234.230469 209.789062 C 234.230469 243.375 261.425781 270.707031 294.855469 270.707031 C 328.285156 270.707031 355.480469 243.375 355.480469 209.789062 C 355.480469 176.199219 328.285156 148.871094 294.855469 148.871094 C 289.585938 148.871094 284.46875 149.554688 279.589844 150.828125 L 284.941406 164.488281 C 288.140625 163.78125 291.457031 163.394531 294.863281 163.394531 C 320.277344 163.394531 340.949219 184.207031 340.949219 209.78125 C 340.949219 235.355469 320.277344 256.164062 294.863281 256.164062 C 269.449219 256.164062 248.773438 235.355469 248.773438 209.78125 C 248.773438 192.804688 257.882812 177.945312 271.441406 169.859375 L 266.089844 156.183594 C 247.132812 166.503906 234.230469 186.65625 234.230469 209.789062 Z M 172.980469 169.4375 L 178.074219 155.675781 C 195.515625 164.761719 208.039062 182.101562 210.460938 202.523438 L 195.800781 202.523438 C 193.585938 188.34375 184.945312 176.28125 172.980469 169.4375 Z M 150.292969 148.878906 C 155.179688 148.878906 159.921875 149.476562 164.472656 150.578125 L 159.386719 164.316406 C 156.441406 163.726562 153.40625 163.410156 150.292969 163.410156 C 124.878906 163.410156 104.203125 184.222656 104.203125 209.796875 C 104.203125 235.371094 124.878906 256.179688 150.292969 256.179688 C 173.25 256.179688 192.335938 239.199219 195.816406 217.058594 L 210.472656 217.058594 C 206.886719 247.230469 181.28125 270.707031 150.300781 270.707031 C 116.871094 270.707031 89.675781 243.382812 89.675781 209.789062 C 89.675781 176.195312 116.863281 148.878906 150.292969 148.878906 Z M 150.292969 148.878906 " fill-opacity="1" fill-rule="nonzero"/></g><path fill="#004aad" d="M 164.40625 209.789062 C 164.40625 213.800781 167.65625 217.050781 171.671875 217.050781 L 225.082031 217.050781 C 229.097656 217.050781 232.347656 213.800781 232.347656 209.789062 C 232.347656 205.773438 229.097656 202.523438 225.082031 202.523438 L 171.671875 202.523438 C 167.664062 202.523438 164.40625 205.773438 164.40625 209.789062 Z M 164.40625 209.789062 " fill-opacity="1" fill-rule="nonzero"/><path fill="#004aad" d="M 147.769531 216.601562 C 148.605469 216.910156 149.457031 217.058594 150.292969 217.058594 C 153.242188 217.058594 156.019531 215.246094 157.105469 212.316406 L 172.980469 169.445312 L 178.074219 155.683594 L 182.628906 143.378906 C 184.023438 139.613281 182.101562 135.4375 178.335938 134.042969 C 174.570312 132.652344 170.394531 134.574219 169 138.335938 L 164.464844 150.585938 L 159.378906 164.324219 L 143.472656 207.273438 C 142.085938 211.03125 144.007812 215.207031 147.769531 216.601562 Z M 147.769531 216.601562 " fill-opacity="1" fill-rule="nonzero"/><path fill="#004aad" d="M 141.09375 120.152344 C 141.09375 124.167969 144.34375 127.417969 148.355469 127.417969 L 183.800781 127.417969 C 187.816406 127.417969 191.066406 124.167969 191.066406 120.152344 C 191.066406 116.140625 187.816406 112.890625 183.800781 112.890625 L 148.355469 112.890625 C 144.34375 112.882812 141.09375 116.140625 141.09375 120.152344 Z M 141.09375 120.152344 " fill-opacity="1" fill-rule="nonzero"/><g clip-path="url(#36b4aba56c)"><path fill="#004aad" d="M 197.015625 140.851562 C 197.015625 144.863281 200.265625 148.113281 204.28125 148.113281 L 262.917969 148.113281 L 266.074219 156.183594 L 271.425781 169.859375 L 288.085938 212.429688 C 289.207031 215.292969 291.949219 217.050781 294.855469 217.050781 C 295.734375 217.050781 296.632812 216.886719 297.5 216.550781 C 301.234375 215.085938 303.078125 210.875 301.621094 207.140625 L 284.933594 164.496094 L 279.582031 150.835938 L 261.339844 104.207031 L 230.894531 104.207031 C 226.882812 104.207031 223.632812 107.457031 223.632812 111.46875 C 223.632812 115.484375 226.882812 118.734375 230.894531 118.734375 L 251.417969 118.734375 L 257.234375 133.578125 L 204.28125 133.578125 C 200.265625 133.585938 197.015625 136.835938 197.015625 140.851562 Z M 40.464844 159.046875 C 40.464844 155.035156 43.714844 151.785156 47.730469 151.785156 L 90.910156 151.785156 C 94.925781 151.785156 98.175781 155.035156 98.175781 159.046875 C 98.175781 163.0625 94.925781 166.308594 90.910156 166.308594 L 47.730469 166.308594 C 43.722656 166.308594 40.464844 163.0625 40.464844 159.046875 Z M 26.878906 176.738281 L 75.875 176.738281 C 79.890625 176.738281 83.140625 179.984375 83.140625 184 C 83.140625 188.011719 79.890625 191.261719 75.875 191.261719 L 26.878906 191.261719 C 22.867188 191.261719 19.617188 188.011719 19.617188 184 C 19.617188 179.984375 22.867188 176.738281 26.878906 176.738281 Z M 41.921875 204.316406 L 72.96875 204.316406 C 76.980469 204.316406 80.234375 207.566406 80.234375 211.582031 C 80.234375 215.59375 76.980469 218.84375 72.96875 218.84375 L 41.921875 218.84375 C 37.910156 218.84375 34.660156 215.59375 34.660156 211.582031 C 34.660156 207.566406 37.910156 204.316406 41.921875 204.316406 Z M 63.980469 230.0625 L 80.488281 230.0625 C 84.503906 230.0625 87.753906 233.3125 87.753906 237.328125 C 87.753906 241.339844 84.503906 244.589844 80.488281 244.589844 L 63.980469 244.589844 C 59.96875 244.589844 56.71875 241.339844 56.71875 237.328125 C 56.71875 233.3125 59.96875 230.0625 63.980469 230.0625 Z M 63.980469 230.0625 " fill-opacity="1" fill-rule="nonzero"/></g></svg>